<?xml version="1.0" encoding="us-ascii" standalone="no"?><svg xmlns="http://www.w3.org/2000/svg" xmlns:xlink="http://www.w3.org/1999/xlink" contentStyleType="text/css" height="1657px" preserveAspectRatio="none" style="width:913px;height:1657px;background:#FFFFFF;" version="1.1" viewBox="0 0 913 1657" width="913px" zoomAndPan="magnify"><defs/><g><!--cluster Buildings--><g id="cluster_Buildings"><path d="M8.5,6 L75.5,6 A3.75,3.75 0 0 1 78,8.5 L85,29.6094 L903.5,29.6094 A2.5,2.5 0 0 1 906,32.1094 L906,1647.5 A2.5,2.5 0 0 1 903.5,1650 L8.5,1650 A2.5,2.5 0 0 1 6,1647.5 L6,8.5 A2.5,2.5 0 0 1 8.5,6 " fill="none" style="stroke:#000000;stroke-width:1.5;"/><line style="stroke:#000000;stroke-width:1.5;" x1="6" x2="85" y1="29.6094" y2="29.6094"/><text fill="#000000" font-family="Noto Sans JP" font-size="14" font-weight="bold" lengthAdjust="spacing" textLength="66" x="10" y="22.5332">Buildings</text></g><!--cluster ThermalZones--><g id="cluster_ThermalZones"><path d="M32.5,825 L132.5,825 A3.75,3.75 0 0 1 135,827.5 L142,848.6094 L879.5,848.6094 A2.5,2.5 0 0 1 882,851.1094 L882,1623.5 A2.5,2.5 0 0 1 879.5,1626 L32.5,1626 A2.5,2.5 0 0 1 30,1623.5 L30,827.5 A2.5,2.5 0 0 1 32.5,825 " fill="none" style="stroke:#000000;stroke-width:1.5;"/><line style="stroke:#000000;stroke-width:1.5;" x1="30" x2="142" y1="848.6094" y2="848.6094"/><text fill="#000000" font-family="Noto Sans JP" font-size="14" font-weight="bold" lengthAdjust="spacing" textLength="99" x="34" y="841.5332">ThermalZones</text></g><!--cluster Detailed--><g id="cluster_Detailed"><path d="M56.5,869 L115.5,869 A3.75,3.75 0 0 1 118,871.5 L125,892.6094 L855.5,892.6094 A2.5,2.5 0 0 1 858,895.1094 L858,1599.5 A2.5,2.5 0 0 1 855.5,1602 L56.5,1602 A2.5,2.5 0 0 1 54,1599.5 L54,871.5 A2.5,2.5 0 0 1 56.5,869 " fill="none" style="stroke:#000000;stroke-width:1.5;"/><line style="stroke:#000000;stroke-width:1.5;" x1="54" x2="125" y1="892.6094" y2="892.6094"/><text fill="#000000" font-family="Noto Sans JP" font-size="14" font-weight="bold" lengthAdjust="spacing" textLength="58" x="58" y="885.5332">Detailed</text></g><!--cluster BaseClasses--><g id="cluster_BaseClasses"><path d="M80.5,913 L171.5,913 A3.75,3.75 0 0 1 174,915.5 L181,936.6094 L831.5,936.6094 A2.5,2.5 0 0 1 834,939.1094 L834,1575.5 A2.5,2.5 0 0 1 831.5,1578 L80.5,1578 A2.5,2.5 0 0 1 78,1575.5 L78,915.5 A2.5,2.5 0 0 1 80.5,913 " fill="none" style="stroke:#000000;stroke-width:1.5;"/><line style="stroke:#000000;stroke-width:1.5;" x1="78" x2="181" y1="936.6094" y2="936.6094"/><text fill="#000000" font-family="Noto Sans JP" font-size="14" font-weight="bold" lengthAdjust="spacing" textLength="90" x="82" y="929.5332">BaseClasses</text></g><!--cluster HeatTransfer--><g id="cluster_HeatTransfer"><path d="M46.5,50 L138.5,50 A3.75,3.75 0 0 1 141,52.5 L148,73.6094 L879.5,73.6094 A2.5,2.5 0 0 1 882,76.1094 L882,798.5 A2.5,2.5 0 0 1 879.5,801 L46.5,801 A2.5,2.5 0 0 1 44,798.5 L44,52.5 A2.5,2.5 0 0 1 46.5,50 " fill="none" style="stroke:#000000;stroke-width:1.5;"/><line style="stroke:#000000;stroke-width:1.5;" x1="44" x2="148" y1="73.6094" y2="73.6094"/><text fill="#000000" font-family="Noto Sans JP" font-size="14" font-weight="bold" lengthAdjust="spacing" textLength="91" x="48" y="66.5332">HeatTransfer</text></g><!--cluster Types--><g id="cluster_Types"><path d="M700.5,208.5 L742.5,208.5 A3.75,3.75 0 0 1 745,211 L752,232.1094 L855.5,232.1094 A2.5,2.5 0 0 1 858,234.6094 L858,422 A2.5,2.5 0 0 1 855.5,424.5 L700.5,424.5 A2.5,2.5 0 0 1 698,422 L698,211 A2.5,2.5 0 0 1 700.5,208.5 " fill="none" style="stroke:#000000;stroke-width:1.5;"/><line style="stroke:#000000;stroke-width:1.5;" x1="698" x2="752" y1="232.1094" y2="232.1094"/><text fill="#000000" font-family="Noto Sans JP" font-size="14" font-weight="bold" lengthAdjust="spacing" textLength="41" x="702" y="225.0332">Types</text></g><!--cluster Data--><g id="cluster_Data"><path d="M70.5,94 L102.5,94 A3.75,3.75 0 0 1 105,96.5 L112,117.6094 L671.5,117.6094 A2.5,2.5 0 0 1 674,120.1094 L674,774.5 A2.5,2.5 0 0 1 671.5,777 L70.5,777 A2.5,2.5 0 0 1 68,774.5 L68,96.5 A2.5,2.5 0 0 1 70.5,94 " fill="none" style="stroke:#000000;stroke-width:1.5;"/><line style="stroke:#000000;stroke-width:1.5;" x1="68" x2="112" y1="117.6094" y2="117.6094"/><text fill="#000000" font-family="Noto Sans JP" font-size="14" font-weight="bold" lengthAdjust="spacing" textLength="31" x="72" y="110.5332">Data</text></g><!--cluster OpaqueConstructions--><g id="cluster_OpaqueConstructions"><path d="M124.5,519 L279.5,519 A3.75,3.75 0 0 1 282,521.5 L289,542.6094 L647.5,542.6094 A2.5,2.5 0 0 1 650,545.1094 L650,750.5 A2.5,2.5 0 0 1 647.5,753 L124.5,753 A2.5,2.5 0 0 1 122,750.5 L122,521.5 A2.5,2.5 0 0 1 124.5,519 " fill="none" style="stroke:#000000;stroke-width:1.5;"/><line style="stroke:#000000;stroke-width:1.5;" x1="122" x2="289" y1="542.6094" y2="542.6094"/><text fill="#000000" font-family="Noto Sans JP" font-size="14" font-weight="bold" lengthAdjust="spacing" textLength="154" x="126" y="535.5332">OpaqueConstructions</text></g><!--cluster BaseClasses--><g id="cluster_BaseClasses"><path d="M94.5,138 L185.5,138 A3.75,3.75 0 0 1 188,140.5 L195,161.6094 L647.5,161.6094 A2.5,2.5 0 0 1 650,164.1094 L650,492.5 A2.5,2.5 0 0 1 647.5,495 L94.5,495 A2.5,2.5 0 0 1 92,492.5 L92,140.5 A2.5,2.5 0 0 1 94.5,138 " fill="none" style="stroke:#000000;stroke-width:1.5;"/><line style="stroke:#000000;stroke-width:1.5;" x1="92" x2="195" y1="161.6094" y2="161.6094"/><text fill="#000000" font-family="Noto Sans JP" font-size="14" font-weight="bold" lengthAdjust="spacing" textLength="90" x="96" y="154.5332">BaseClasses</text></g><!--class ConstructionRecords--><g id="elem_ConstructionRecords"><rect codeLine="13" fill="#F1F1F1" height="181.9688" id="ConstructionRecords" rx="2.5" ry="2.5" style="stroke:#181818;stroke-width:0.5;" width="706" x="103" y="1380"/><text fill="#000000" font-family="Noto Sans JP" font-size="12" font-style="italic" lengthAdjust="spacing" textLength="49" x="431.5" y="1397.457">&#171;record&#187;</text><text fill="#000000" font-family="Noto Sans JP" font-size="14" lengthAdjust="spacing" textLength="133" x="389.5" y="1414.627">ConstructionRecords</text><line style="stroke:#181818;stroke-width:0.5;" x1="104" x2="808" y1="1422.7031" y2="1422.7031"/><ellipse cx="114" cy="1437.0078" fill="none" rx="3" ry="3" style="stroke:#038048;stroke-width:1.0;"/><text fill="#000000" font-family="Noto Sans JP" font-size="14" lengthAdjust="spacing" textLength="548" x="123" y="1441.2363">&#171;parameter&#187; datConExt[NConExt]: ParameterConstruction "&#31379;&#12398;&#12394;&#12356;&#22806;&#35013;&#12398;&#12497;&#12521;&#12513;&#12540;&#12479;"</text><ellipse cx="114" cy="1454.6172" fill="none" rx="3" ry="3" style="stroke:#038048;stroke-width:1.0;"/><text fill="#000000" font-family="Noto Sans JP" font-size="14" lengthAdjust="spacing" textLength="673" x="123" y="1458.8457">&#171;parameter&#187; datConExtWin[NConExtWin]: ParameterConstructionWithWindow "&#31379;&#12398;&#12354;&#12427;&#22806;&#35013;&#12398;&#12497;&#12521;&#12513;&#12540;&#12479;"</text><ellipse cx="114" cy="1472.2266" fill="none" rx="3" ry="3" style="stroke:#038048;stroke-width:1.0;"/><text fill="#000000" font-family="Noto Sans JP" font-size="14" lengthAdjust="spacing" textLength="582" x="123" y="1476.4551">&#171;parameter&#187; datConPar[NConPar]: ParameterConstruction "&#31354;&#38291;&#20869;&#12398;&#38291;&#20181;&#20999;&#12426;&#12398;&#12497;&#12521;&#12513;&#12540;&#12479;"</text><ellipse cx="114" cy="1489.8359" fill="none" rx="3" ry="3" style="stroke:#038048;stroke-width:1.0;"/><text fill="#000000" font-family="Noto Sans JP" font-size="14" lengthAdjust="spacing" textLength="616" x="123" y="1494.0645">&#171;parameter&#187; datConBou[NConBou]: ParameterConstruction "&#31354;&#38291;&#22806;&#12392;&#12398;&#22659;&#30028;&#27083;&#36896;&#20307;&#12398;&#12497;&#12521;&#12513;&#12540;&#12479;"</text><ellipse cx="114" cy="1507.4453" fill="none" rx="3" ry="3" style="stroke:#038048;stroke-width:1.0;"/><text fill="#000000" font-family="Noto Sans JP" font-size="14" lengthAdjust="spacing" textLength="680" x="123" y="1511.6738">&#171;parameter&#187; surBou[NSurBou]: OpaqueSurface "&#29105;&#20253;&#23566;&#12364;&#31354;&#38291;&#22806;&#12391;&#12514;&#12487;&#12523;&#21270;&#12373;&#12428;&#12383;&#19981;&#36879;&#26126;&#12394;&#38754;&#12398;&#12497;&#12521;&#12513;&#12540;&#12479;"</text><ellipse cx="114" cy="1525.0547" fill="none" rx="3" ry="3" style="stroke:#038048;stroke-width:1.0;"/><text fill="#000000" font-family="Noto Sans JP" font-size="14" lengthAdjust="spacing" textLength="429" x="123" y="1529.2832">&#171;parameter&#187; dummyCon: Brick120 "&#19978;&#26360;&#12365;&#12373;&#12428;&#12427;&#12398;&#12391;&#28961;&#35222;&#12375;&#12390;&#12424;&#12356;"</text><ellipse cx="114" cy="1542.6641" fill="none" rx="3" ry="3" style="stroke:#038048;stroke-width:1.0;"/><text fill="#000000" font-family="Noto Sans JP" font-size="14" lengthAdjust="spacing" textLength="474" x="123" y="1546.8926">&#171;parameter&#187; dummyGlaSys: SingleClear3 "&#19978;&#26360;&#12365;&#12373;&#12428;&#12427;&#12398;&#12391;&#28961;&#35222;&#12375;&#12390;&#12424;&#12356;"</text><line style="stroke:#181818;stroke-width:0.5;" x1="104" x2="808" y1="1553.9688" y2="1553.9688"/></g><!--class ParameterConstruction--><g id="elem_ParameterConstruction"><rect codeLine="22" fill="#F1F1F1" height="76.3125" id="ParameterConstruction" rx="2.5" ry="2.5" style="stroke:#181818;stroke-width:0.5;" width="284" x="314" y="1244"/><text fill="#000000" font-family="Noto Sans JP" font-size="12" font-style="italic" lengthAdjust="spacing" textLength="49" x="431.5" y="1261.457">&#171;record&#187;</text><text fill="#000000" font-family="Noto Sans JP" font-size="14" lengthAdjust="spacing" textLength="146" x="383" y="1278.627">ParameterConstruction</text><line style="stroke:#181818;stroke-width:0.5;" x1="315" x2="597" y1="1286.7031" y2="1286.7031"/><ellipse cx="325" cy="1301.0078" fill="none" rx="3" ry="3" style="stroke:#038048;stroke-width:1.0;"/><text fill="#000000" font-family="Noto Sans JP" font-size="14" lengthAdjust="spacing" textLength="258" x="334" y="1305.2363">&#171;parameter&#187; A: Area "&#27083;&#36896;&#20307;&#34920;&#38754;&#12398;&#38754;&#31309;"</text><line style="stroke:#181818;stroke-width:0.5;" x1="315" x2="597" y1="1312.3125" y2="1312.3125"/></g><!--class PartialParameterConstruction--><g id="elem_PartialParameterConstruction"><rect codeLine="25" fill="#F1F1F1" height="234.7969" id="PartialParameterConstruction" rx="2.5" ry="2.5" style="stroke:#181818;stroke-width:0.5;" width="723" x="94.5" y="949"/><text fill="#000000" font-family="Noto Sans JP" font-size="12" font-style="italic" lengthAdjust="spacing" textLength="49" x="431.5" y="966.457">&#171;record&#187;</text><text fill="#000000" font-family="Noto Sans JP" font-size="14" lengthAdjust="spacing" textLength="186" x="363" y="983.627">PartialParameterConstruction</text><line style="stroke:#181818;stroke-width:0.5;" x1="95.5" x2="816.5" y1="991.7031" y2="991.7031"/><ellipse cx="105.5" cy="1006.0078" fill="none" rx="3" ry="3" style="stroke:#038048;stroke-width:1.0;"/><text fill="#000000" font-family="Noto Sans JP" font-size="14" lengthAdjust="spacing" textLength="372" x="114.5" y="1010.2363">&#171;parameter&#187; name: String "&#38754;&#12398;&#21517;&#21069;&#65288;MixedAir&#12391;&#12399;&#20219;&#24847;&#65289;"</text><ellipse cx="105.5" cy="1023.6172" fill="none" rx="3" ry="3" style="stroke:#038048;stroke-width:1.0;"/><text fill="#000000" font-family="Noto Sans JP" font-size="14" lengthAdjust="spacing" textLength="505" x="114.5" y="1027.8457">&#171;parameter&#187; layers: OpaqueConstructions.Generic "&#19981;&#36879;&#26126;&#12394;&#27083;&#36896;&#20307;&#12398;&#26448;&#26009;&#23646;&#24615;"</text><ellipse cx="105.5" cy="1041.2266" fill="none" rx="3" ry="3" style="stroke:#038048;stroke-width:1.0;"/><text fill="#000000" font-family="Noto Sans JP" font-size="14" lengthAdjust="spacing" textLength="295" x="114.5" y="1045.4551">&#171;parameter&#187; til: Angle "&#12481;&#12523;&#12488;&#65288;&#22721;&#12394;&#12425;90&#24230;&#65289;"</text><ellipse cx="105.5" cy="1058.8359" fill="none" rx="3" ry="3" style="stroke:#038048;stroke-width:1.0;"/><text fill="#000000" font-family="Noto Sans JP" font-size="14" lengthAdjust="spacing" textLength="454" x="114.5" y="1063.0645">&#171;parameter&#187; azi: Angle "&#12450;&#12472;&#12510;&#12473;&#35282;&#65288;&#22721;&#12394;&#12425;&#21521;&#12356;&#12390;&#12356;&#12427;&#26041;&#35282;&#12391;&#27770;&#12414;&#12427;&#65289;"</text><ellipse cx="105.5" cy="1076.4453" fill="none" rx="3" ry="3" style="stroke:#038048;stroke-width:1.0;"/><text fill="#000000" font-family="Noto Sans JP" font-size="14" lengthAdjust="spacing" textLength="483" x="114.5" y="1080.6738">&#171;parameter&#187; steadyStateInitial: Boolean "&#28201;&#24230;&#12398;&#21021;&#26399;&#20516;&#12434;&#19982;&#12360;&#12427;&#22580;&#21512;&#12399;False"</text><ellipse cx="105.5" cy="1094.0547" fill="none" rx="3" ry="3" style="stroke:#038048;stroke-width:1.0;"/><text fill="#000000" font-family="Noto Sans JP" font-size="14" lengthAdjust="spacing" textLength="697" x="114.5" y="1098.2832">&#171;parameter&#187; T_a_start: Temperature "&#12509;&#12540;&#12488;A&#65288;&#22806;&#65311;&#65289;&#12398;&#21021;&#26399;&#28201;&#24230;&#65288;MixedAir&#12395;&#12390;Medium&#12398;&#21021;&#26399;&#28201;&#24230;&#12395;&#12394;&#12427;&#65289;"</text><ellipse cx="105.5" cy="1111.6641" fill="none" rx="3" ry="3" style="stroke:#038048;stroke-width:1.0;"/><text fill="#000000" font-family="Noto Sans JP" font-size="14" lengthAdjust="spacing" textLength="697" x="114.5" y="1115.8926">&#171;parameter&#187; T_b_start: Temperature "&#12509;&#12540;&#12488;B&#65288;&#20869;&#65311;&#65289;&#12398;&#21021;&#26399;&#28201;&#24230;&#65288;MixedAir&#12395;&#12390;Medium&#12398;&#21021;&#26399;&#28201;&#24230;&#12395;&#12394;&#12427;&#65289;"</text><ellipse cx="105.5" cy="1129.2734" fill="none" rx="3" ry="3" style="stroke:#038048;stroke-width:1.0;"/><text fill="#000000" font-family="Noto Sans JP" font-size="14" lengthAdjust="spacing" textLength="458" x="114.5" y="1133.502">&#171;parameter&#187; stateAtSurface_a: Boolean "&#34920;&#38754;a&#19978;&#12395;&#29366;&#24907;&#22793;&#25968;&#12434;&#26377;&#12377;&#12427;&#12363;"</text><ellipse cx="105.5" cy="1146.8828" fill="none" rx="3" ry="3" style="stroke:#038048;stroke-width:1.0;"/><text fill="#000000" font-family="Noto Sans JP" font-size="14" lengthAdjust="spacing" textLength="458" x="114.5" y="1151.1113">&#171;parameter&#187; stateAtSurface_b: Boolean "&#34920;&#38754;b&#19978;&#12395;&#29366;&#24907;&#22793;&#25968;&#12434;&#26377;&#12377;&#12427;&#12363;"</text><ellipse cx="105.5" cy="1164.4922" fill="none" rx="3" ry="3" style="stroke:#038048;stroke-width:1.0;"/><text fill="#000000" font-family="Noto Sans JP" font-size="14" lengthAdjust="spacing" textLength="426" x="114.5" y="1168.7207">&#171;parameter&#187; boundaryCondition: CFDBoundaryConditions "&#19981;&#20351;&#29992;"</text><line style="stroke:#181818;stroke-width:0.5;" x1="95.5" x2="816.5" y1="1175.7969" y2="1175.7969"/></g><!--class SurfaceRoughness--><g id="elem_SurfaceRoughness"><rect codeLine="44" fill="#F1F1F1" height="164.3594" id="SurfaceRoughness" rx="2.5" ry="2.5" style="stroke:#181818;stroke-width:0.5;" width="127" x="714.5" y="244.5"/><text fill="#000000" font-family="Noto Sans JP" font-size="12" font-style="italic" lengthAdjust="spacing" textLength="37" x="759.5" y="261.957">&#171;type&#187;</text><text fill="#000000" font-family="Noto Sans JP" font-size="14" lengthAdjust="spacing" textLength="121" x="717.5" y="279.127">SurfaceRoughness</text><line style="stroke:#181818;stroke-width:0.5;" x1="715.5" x2="840.5" y1="287.2031" y2="287.2031"/><text fill="#000000" font-family="Noto Sans JP" font-size="14" lengthAdjust="spacing" textLength="71" x="720.5" y="305.7363">VeryRough</text><text fill="#000000" font-family="Noto Sans JP" font-size="14" lengthAdjust="spacing" textLength="42" x="720.5" y="323.3457">Rough</text><text fill="#000000" font-family="Noto Sans JP" font-size="14" lengthAdjust="spacing" textLength="49" x="720.5" y="340.9551">Medium</text><text fill="#000000" font-family="Noto Sans JP" font-size="14" lengthAdjust="spacing" textLength="97" x="720.5" y="358.5645">MediumSmooth</text><text fill="#000000" font-family="Noto Sans JP" font-size="14" lengthAdjust="spacing" textLength="48" x="720.5" y="376.1738">Smooth</text><text fill="#000000" font-family="Noto Sans JP" font-size="14" lengthAdjust="spacing" textLength="77" x="720.5" y="393.7832">VerySmooth</text><line style="stroke:#181818;stroke-width:0.5;" x1="715.5" x2="840.5" y1="400.8594" y2="400.8594"/></g><!--class OpaqueConstructionsGeneric--><g id="elem_OpaqueConstructionsGeneric"><rect codeLine="55" fill="#F1F1F1" height="181.9688" id="OpaqueConstructionsGeneric" rx="2.5" ry="2.5" style="stroke:#181818;stroke-width:0.5;" width="495" x="138.5" y="555"/><text fill="#000000" font-family="Noto Sans JP" font-size="12" font-style="italic" lengthAdjust="spacing" textLength="49" x="361.5" y="572.457">&#171;record&#187;</text><text fill="#000000" font-family="Noto Sans JP" font-size="14" lengthAdjust="spacing" textLength="50" x="361" y="589.627">Generic</text><line style="stroke:#181818;stroke-width:0.5;" x1="139.5" x2="632.5" y1="597.7031" y2="597.7031"/><ellipse cx="149.5" cy="612.0078" fill="none" rx="3" ry="3" style="stroke:#038048;stroke-width:1.0;"/><text fill="#000000" font-family="Noto Sans JP" font-size="14" lengthAdjust="spacing" textLength="224" x="158.5" y="616.2363">&#171;parameter&#187; nLay: Integer "&#23652;&#12398;&#25968;"</text><ellipse cx="149.5" cy="629.6172" fill="none" rx="3" ry="3" style="stroke:#038048;stroke-width:1.0;"/><text fill="#000000" font-family="Noto Sans JP" font-size="14" lengthAdjust="spacing" textLength="469" x="158.5" y="633.8457">&#171;parameter&#187; material[nLay]: Material: &#23652;&#12372;&#12392;&#12398;&#26448;&#26009;&#23646;&#24615;&#65288;&#22806;&#12363;&#12425;&#20869;&#12398;&#38918;&#65289;"</text><ellipse cx="149.5" cy="647.2266" fill="none" rx="3" ry="3" style="stroke:#038048;stroke-width:1.0;"/><text fill="#000000" font-family="Noto Sans JP" font-size="14" lengthAdjust="spacing" textLength="360" x="158.5" y="651.4551">&#171;parameter&#187; absIR_a: Emissivity "&#22806;&#35013;&#38754;&#12398;&#36196;&#22806;&#32218;&#21560;&#21454;&#29575;"</text><ellipse cx="149.5" cy="664.8359" fill="none" rx="3" ry="3" style="stroke:#038048;stroke-width:1.0;"/><text fill="#000000" font-family="Noto Sans JP" font-size="14" lengthAdjust="spacing" textLength="360" x="158.5" y="669.0645">&#171;parameter&#187; absIR_b: Emissivity "&#37096;&#23627;&#38754;&#12398;&#36196;&#22806;&#32218;&#21560;&#21454;&#29575;"</text><ellipse cx="149.5" cy="682.4453" fill="none" rx="3" ry="3" style="stroke:#038048;stroke-width:1.0;"/><text fill="#000000" font-family="Noto Sans JP" font-size="14" lengthAdjust="spacing" textLength="353" x="158.5" y="686.6738">&#171;parameter&#187; absSol_a: Emissivity "&#22806;&#35013;&#38754;&#12398;&#26085;&#23556;&#21560;&#21454;&#29575;"</text><ellipse cx="149.5" cy="700.0547" fill="none" rx="3" ry="3" style="stroke:#038048;stroke-width:1.0;"/><text fill="#000000" font-family="Noto Sans JP" font-size="14" lengthAdjust="spacing" textLength="353" x="158.5" y="704.2832">&#171;parameter&#187; absSol_b: Emissivity "&#37096;&#23627;&#38754;&#12398;&#26085;&#23556;&#21560;&#21454;&#29575;"</text><ellipse cx="149.5" cy="717.6641" fill="none" rx="3" ry="3" style="stroke:#038048;stroke-width:1.0;"/><text fill="#000000" font-family="Noto Sans JP" font-size="14" lengthAdjust="spacing" textLength="409" x="158.5" y="721.8926">&#171;parameter&#187; roughness_a: SurfaceRoughness "&#22806;&#35013;&#34920;&#38754;&#12398;&#31895;&#12373;"</text><line style="stroke:#181818;stroke-width:0.5;" x1="139.5" x2="632.5" y1="728.9688" y2="728.9688"/></g><!--class Material--><g id="elem_Material"><rect codeLine="68" fill="#F1F1F1" height="305.2344" id="Material" rx="2.5" ry="2.5" style="stroke:#181818;stroke-width:0.5;" width="525" x="108.5" y="174"/><text fill="#000000" font-family="Noto Sans JP" font-size="12" font-style="italic" lengthAdjust="spacing" textLength="49" x="346.5" y="191.457">&#171;record&#187;</text><text fill="#000000" font-family="Noto Sans JP" font-size="14" lengthAdjust="spacing" textLength="50" x="346" y="208.627">Material</text><line style="stroke:#181818;stroke-width:0.5;" x1="109.5" x2="632.5" y1="216.7031" y2="216.7031"/><ellipse cx="119.5" cy="231.0078" fill="none" rx="3" ry="3" style="stroke:#038048;stroke-width:1.0;"/><text fill="#000000" font-family="Noto Sans JP" font-size="14" lengthAdjust="spacing" textLength="185" x="128.5" y="235.2363">&#171;parameter&#187; x: Length "&#21402;&#12415;"</text><ellipse cx="119.5" cy="248.6172" fill="none" rx="3" ry="3" style="stroke:#038048;stroke-width:1.0;"/><text fill="#000000" font-family="Noto Sans JP" font-size="14" lengthAdjust="spacing" textLength="299" x="128.5" y="252.8457">&#171;parameter&#187; k: ThermalConductivity "&#29105;&#20253;&#23566;&#29575;"</text><ellipse cx="119.5" cy="266.2266" fill="none" rx="3" ry="3" style="stroke:#038048;stroke-width:1.0;"/><text fill="#000000" font-family="Noto Sans JP" font-size="14" lengthAdjust="spacing" textLength="275" x="128.5" y="270.4551">&#171;parameter&#187; c: SpecificHeatCapacity "&#27604;&#29105;"</text><ellipse cx="119.5" cy="283.8359" fill="none" rx="3" ry="3" style="stroke:#038048;stroke-width:1.0;"/><text fill="#000000" font-family="Noto Sans JP" font-size="14" lengthAdjust="spacing" textLength="190" x="128.5" y="288.0645">&#171;parameter&#187; d: Density "&#23494;&#24230;"</text><ellipse cx="119.5" cy="301.4453" fill="none" rx="3" ry="3" style="stroke:#038048;stroke-width:1.0;"/><text fill="#000000" font-family="Noto Sans JP" font-size="14" lengthAdjust="spacing" textLength="320" x="128.5" y="305.6738">&#171;parameter&#187; R: m2.K/W "&#21336;&#20301;&#38754;&#31309;&#24403;&#12383;&#12426;&#12398;&#29105;&#25269;&#25239;"</text><ellipse cx="119.5" cy="319.0547" fill="none" rx="3" ry="3" style="stroke:#038048;stroke-width:1.0;"/><text fill="#000000" font-family="Noto Sans JP" font-size="14" lengthAdjust="spacing" textLength="499" x="128.5" y="323.2832">&#171;parameter&#187; nStaRef: Integer "&#21442;&#29031;&#26448;&#26009;&#65288;0.2m&#12467;&#12531;&#12463;&#12522;&#12540;&#12488;&#65289;&#12398;&#29366;&#24907;&#22793;&#25968;&#12398;&#25968;"</text><ellipse cx="119.5" cy="336.6641" fill="none" rx="3" ry="3" style="stroke:#038048;stroke-width:1.0;"/><text fill="#000000" font-family="Noto Sans JP" font-size="14" lengthAdjust="spacing" textLength="264" x="128.5" y="340.8926">&#171;parameter&#187; nSta: Integer "&#29366;&#24907;&#22793;&#25968;&#12398;&#25968;"</text><ellipse cx="119.5" cy="354.2734" fill="none" rx="3" ry="3" style="stroke:#038048;stroke-width:1.0;"/><text fill="#000000" font-family="Noto Sans JP" font-size="14" lengthAdjust="spacing" textLength="346" x="128.5" y="358.502">&#171;parameter&#187; steadyState: Boolean "&#23450;&#24120;&#35336;&#31639;&#12363;&#12393;&#12358;&#12363;"</text><ellipse cx="119.5" cy="371.8828" fill="none" rx="3" ry="3" style="stroke:#038048;stroke-width:1.0;"/><text fill="#000000" font-family="Noto Sans JP" font-size="14" lengthAdjust="spacing" textLength="477" x="128.5" y="376.1113">&#171;parameter&#187; piRef: Real "&#21442;&#29031;&#26448;&#26009;&#12398;x/sqrt&#65288;&#945;&#65289;&#65309;&#28201;&#24230;&#22793;&#21270;&#12398;&#31354;&#38291;&#20253;&#25773;&#36895;&#24230;"</text><ellipse cx="119.5" cy="389.4922" fill="none" rx="3" ry="3" style="stroke:#038048;stroke-width:1.0;"/><text fill="#000000" font-family="Noto Sans JP" font-size="14" lengthAdjust="spacing" textLength="408" x="128.5" y="393.7207">&#171;parameter&#187; piMat: Real "x/sqrt&#65288;&#945;&#65289;&#65309;&#28201;&#24230;&#22793;&#21270;&#12398;&#31354;&#38291;&#20253;&#25773;&#36895;&#24230;"</text><ellipse cx="119.5" cy="407.1016" fill="none" rx="3" ry="3" style="stroke:#038048;stroke-width:1.0;"/><text fill="#000000" font-family="Noto Sans JP" font-size="14" lengthAdjust="spacing" textLength="278" x="128.5" y="411.3301">&#171;parameter&#187; nStaReal: Real "&#29366;&#24907;&#22793;&#25968;&#23455;&#25968;"</text><ellipse cx="119.5" cy="424.7109" fill="none" rx="3" ry="3" style="stroke:#038048;stroke-width:1.0;"/><text fill="#000000" font-family="Noto Sans JP" font-size="14" lengthAdjust="spacing" textLength="430" x="128.5" y="428.9395">&#171;parameter&#187; TSol: Temperature "PCM&#12395;&#12398;&#12415;&#20351;&#29992;&#12373;&#12428;&#12427;&#22266;&#30456;&#32218;&#28201;&#24230;"</text><ellipse cx="119.5" cy="442.3203" fill="none" rx="3" ry="3" style="stroke:#038048;stroke-width:1.0;"/><text fill="#000000" font-family="Noto Sans JP" font-size="14" lengthAdjust="spacing" textLength="429" x="128.5" y="446.5488">&#171;parameter&#187; TLiq: Temperature "PCM&#12395;&#12398;&#12415;&#20351;&#29992;&#12373;&#12428;&#12427;&#28082;&#30456;&#32218;&#28201;&#24230;"</text><ellipse cx="119.5" cy="459.9297" fill="none" rx="3" ry="3" style="stroke:#038048;stroke-width:1.0;"/><text fill="#000000" font-family="Noto Sans JP" font-size="14" lengthAdjust="spacing" textLength="351" x="128.5" y="464.1582">&#171;parameter&#187; LHea: SpecificInternalEnergy "&#30456;&#22793;&#21270;&#28508;&#29105;"</text><line style="stroke:#181818;stroke-width:0.5;" x1="109.5" x2="632.5" y1="471.2344" y2="471.2344"/></g><!--link ParameterConstruction to ConstructionRecords--><g id="link_ParameterConstruction_ConstructionRecords"><path codeLine="95" d="M434.51,1320.39 C431.17,1337.55 429.4926,1346.7104 429.6626,1367.6604 " fill="none" id="ParameterConstruction-to-ConstructionRecords" style="stroke:#181818;stroke-width:1.0;"/><polygon fill="#181818" points="429.76,1379.66,433.7112,1373.6277,429.6626,1367.6604,425.7114,1373.6927,429.76,1379.66" style="stroke:#181818;stroke-width:1.0;"/><text fill="#000000" font-family="Noto Sans JP" font-size="13" lengthAdjust="spacing" textLength="121" x="301.8479" y="1369.2542">datConExt[NConExt]</text></g><!--link ParameterConstruction to ConstructionRecords--><g id="link_ParameterConstruction_ConstructionRecords"><path codeLine="96" d="M456,1320.39 C456,1337.55 456,1346.71 456,1367.66 " fill="none" id="ParameterConstruction-to-ConstructionRecords-1" style="stroke:#181818;stroke-width:1.0;"/><polygon fill="#181818" points="456,1379.66,460,1373.66,456,1367.66,452,1373.66,456,1379.66" style="stroke:#181818;stroke-width:1.0;"/><text fill="#000000" font-family="Noto Sans JP" font-size="13" lengthAdjust="spacing" textLength="121" x="460.8211" y="1369.2542">datConPar[NConPar]</text></g><!--link ParameterConstruction to ConstructionRecords--><g id="link_ParameterConstruction_ConstructionRecords"><path codeLine="97" d="M477.49,1320.39 C480.83,1337.55 482.5074,1346.7104 482.3374,1367.6604 " fill="none" id="ParameterConstruction-to-ConstructionRecords-2" style="stroke:#181818;stroke-width:1.0;"/><polygon fill="#181818" points="482.24,1379.66,486.2886,1373.6927,482.3374,1367.6604,478.2888,1373.6277,482.24,1379.66" style="stroke:#181818;stroke-width:1.0;"/><text fill="#000000" font-family="Noto Sans JP" font-size="13" lengthAdjust="spacing" textLength="127" x="489.3912" y="1369.2542">datConBou[NConBou]</text></g><!--reverse link PartialParameterConstruction to ParameterConstruction--><g id="link_PartialParameterConstruction_ParameterConstruction"><path codeLine="103" d="M456,1202.24 C456,1223.86 456,1226.92 456,1243.84 " fill="none" id="PartialParameterConstruction-backto-ParameterConstruction" style="stroke:#181818;stroke-width:1.0;"/><polygon fill="none" points="456,1184.24,450,1202.24,462,1202.24,456,1184.24" style="stroke:#181818;stroke-width:1.0;"/></g><!--link OpaqueConstructionsGeneric to PartialParameterConstruction--><g id="link_OpaqueConstructionsGeneric_PartialParameterConstruction"><path codeLine="106" d="M401.06,737.04 C411.43,799.02 423.3201,870.1045 434.5301,937.1145 " fill="none" id="OpaqueConstructionsGeneric-to-PartialParameterConstruction" style="stroke:#181818;stroke-width:1.0;"/><polygon fill="#181818" points="436.51,948.95,439.4652,942.3723,434.5301,937.1145,431.5748,943.6922,436.51,948.95" style="stroke:#181818;stroke-width:1.0;"/><text fill="#000000" font-family="Noto Sans JP" font-size="13" lengthAdjust="spacing" textLength="35" x="399.0247" y="938.0284">layers</text></g><!--link Material to OpaqueConstructionsGeneric--><g id="link_Material_OpaqueConstructionsGeneric"><path codeLine="110" d="M378.17,479.28 C379.39,505.1 380.0507,519.1935 381.1707,542.7735 " fill="none" id="Material-to-OpaqueConstructionsGeneric" style="stroke:#181818;stroke-width:1.0;"/><polygon fill="#181818" points="381.74,554.76,385.4508,548.577,381.1707,542.7735,377.4598,548.9565,381.74,554.76" style="stroke:#181818;stroke-width:1.0;"/><text fill="#000000" font-family="Noto Sans JP" font-size="13" lengthAdjust="spacing" textLength="82" x="295.9919" y="544.0527">material[nLay]</text></g><!--link SurfaceRoughness to OpaqueConstructionsGeneric--><g id="link_SurfaceRoughness_OpaqueConstructionsGeneric"><path codeLine="111" d="M729.9,408.81 C708.28,440.82 680.7,476.23 650,503 C628.33,521.9 613.921,532.9464 588.651,548.5464 " fill="none" id="SurfaceRoughness-to-OpaqueConstructionsGeneric" style="stroke:#181818;stroke-width:1.0;"/><polygon fill="#181818" points="578.44,554.85,585.6467,555.1019,588.651,548.5464,581.4443,548.2945,578.44,554.85" style="stroke:#181818;stroke-width:1.0;"/><text fill="#000000" font-family="Noto Sans JP" font-size="13" lengthAdjust="spacing" textLength="74" x="517.3124" y="544.1501">roughness_a</text></g><!--SRC=[lLXhKnDN6FxEhpYpNvXf1rJG2XdZ31Urja2TmDIPEWvpI4xW3CbktDrKKiiCIHIvYE85K15Hf79noaMhJH7AF-YVsEm6Fl4N-fuzkMoItH22xNv8zdBUztdFUtdEUquVzH7afR8tGAgKVYg6i8o3w5OLWij7_3WSK2zAejg1WmG97P8geKuiAkYxAqBLO5LL27lxSIz1pM4Qy56nL-62cTTTVKGEui1FaaYKsbQYOXeWFZw4NTMvWP4GKN8V-CUM05OKr7AnjLaAYpuiHreaqKTLAW7-kND81Hbq_Zmg51kiihlFMeeLOYecIe6abyE1TbKEUncCXtWbsMU2oUOjWokGOjVNR8JfEA8IcGtoOHKKNHXGhtNm_-ikT2Kpm0g1XDJgOoswfaLNjUXjVN5wxyqTzXX_gCLNjFXhBRwjnNQ5eq1UfM865MwTWAzIjGy- -wIREHDYMcpy-2O0d8aF_oLclRArF_rO7sP8S9FyFAMFtDLYOyS1XZGnWU7_KE35QIsw363wGZmrTSzO6jyVUfNSULmPl1AMJUnEyn-mVmZX6s42ZtxiXR993Mycj-VqZVjQz9u5VqcBBsZnkrhydNuF7gUqs3qjEfzCJEmFFJ2Umk3L_Rc52XqI3WPPkRXGiqoz_QVgJY8XcHWpPXDQT28D5HitWxwKklrwxotWpsZHjrfi1DAmR8HB0TmPKLoe4qe_06L5i5nVET1WtXElVlievXLaEVNOv49DCi58o4Pwx_KozoxyfbOcIbdYpLYYKXpuGWQ9S0j-KsNm71Au9VhaX3uwSR0zqau7YA-9oYn5ekl9pv-DsmyEjaVB2Ki0HuYiP3BGQgDIUuc81BA11IYNOjRKD-OcZUbd-kPBOsYf732L1i2lBFH8qE9HI6GjFWBsws-YZCzYeuqdzQstPLgEVw4vPR45BPRGuY-rs5zxIu-iAlN9Xv0uB8FWDpPkJBC1u2XZSqkB_WrlRE6gEQ2VYZYG3qkLRdz0acGtJ0QTHtMrPqytD3IUgZk3iEXZCqJdK7tjcVhJTGqDPyz0FKaIfBbuD0GleG48T1gZvcHjVMFTDusD5eZCAsS06zfH2VP5EbMiaiiYPScPbOP4Jwo0xrbMZSmPB-RreKKjzYYPW92FC9P_zOS-2HMuVX47559EUBgwSRUYGWsuK1S9XeYCrR1indsEqL9yf8b5QN7wO7iU8f35vMRavVGx25uxyT5mi62K-MdLAOHs9lMKDgcPcJHyvtyqIM71Q5BJpD-DBG7XX8E1745fQkoJSGVMsb5ZQWFYOhm0yvwPH3bU0KnF4KpF5u7fAUoxN0xT66EKvCvkwico4u_oE-WOhRtOjmIhNJAqatx0krNKgfbDOG6RybKXFN6F5ExjWzQoH3l8hX-973675dsnVyipmU5rPr2Ir68PXzSCskPJeL-iisx5AYwOHEQJ3QdRJ9UxI4YplO2mOYUOMGmEwsqTbgys776Xow9AUk65e6ykikLZQaCeKpu8-Ii3OLrZYg1XQay_kv2fwWblpgph4MSNI5os1l2syTMmRLLcsBYGYZq47ZqmHuJ2G9Tk8LXN-_s9gm840I6t4WwQdpAMeMk8ekkereFyaWotL4IdNCnQSpWg6pNZ8n5u6dIQ6guZ4ufWRnyAKj5zYkjqerk5wAPKWG63g4mdunxbieTnq8KWLHJwCrKZ42gpl-SDnzx7HNXC_VbSdqpe3-wdxjyLZgIw9r_rVdnPtnp_0gexfK0fiusPt_IDsvKgBc5qXOhb30qneukeAMrwjjzClOV-TwfOzs293lJmpMkkJysKKeMLFU12RKJiLVl0yFlFjUXkkLxeTsMs-snXO2p37PpT_1p1erxmOuXugPzwsHhHWi41fZ9Z_GdeArUDpuLQYQZm15eVXlMyN4cF2t5s0C69fycT2RvBq5cRFC-tgM27CVRH69ifLoUhPG_nMsdpGInrPucp7F3RoTgwe1RxeCK_QB5rBRxAcnZUkkIjv4UYMWPhmQnSaQNTjFGR-jfpFP7OMnv9hSqmTewkQD5Xs_x2Nck8cZunoJdF8M3Sm0dbXgo2P_xP12ySRC_nfWoCDpVCQtml3TbbFFfzVsZ-2F4DKIYJ3Ef_1yD3pfOrZcHrlhusVmJdTm5r5RIvLrhQpVOKjjQxlFdAxhVrsQtKR0BOby-aR90sUgDy4EFJ-qf0sg2YS-NDybA65VC2T2EzZ2rc4zplniuBnqfdwwoNDJDOLBEP28KE5hTBegHA8ZNfmetyR7k3obSIwWE6zVPX4SZMKJhTnJetkJ2Wskrssvubmlkgwhml7U5W3-pPqRbVQsfyqatHJWn43Zl5CsLhQhv2WjD9e62hsVv0WskpAikUP1v3ZVLey1Xgh0TzWeExye_WSiufEAjp4iyUcrdScZvJSnB9EmGh4EC7PVQIF5Vi9ywofVJ1KoPfR3_dT3jhO10bzWTPr_EJ9Q6aCfRPjXl4h9QYBUKX2iq9E9l7ZCysF5cG_Ds5u2nULTIjPNLOchfI2k3w5m00]--></g></svg>