<?xml version="1.0" encoding="us-ascii" standalone="no"?><svg xmlns="http://www.w3.org/2000/svg" xmlns:xlink="http://www.w3.org/1999/xlink" contentStyleType="text/css" height="1380px" preserveAspectRatio="none" style="width:899px;height:1380px;background:#FFFFFF;" version="1.1" viewBox="0 0 899 1380" width="899px" zoomAndPan="magnify"><defs/><g><!--cluster Buildings--><g id="cluster_Buildings"><path d="M8.5,6 L75.5,6 A3.75,3.75 0 0 1 78,8.5 L85,29.6094 L889.5,29.6094 A2.5,2.5 0 0 1 892,32.1094 L892,1370.5 A2.5,2.5 0 0 1 889.5,1373 L8.5,1373 A2.5,2.5 0 0 1 6,1370.5 L6,8.5 A2.5,2.5 0 0 1 8.5,6 " fill="none" style="stroke:#000000;stroke-width:1.5;"/><line style="stroke:#000000;stroke-width:1.5;" x1="6" x2="85" y1="29.6094" y2="29.6094"/><text fill="#000000" font-family="Noto Sans JP" font-size="14" font-weight="bold" lengthAdjust="spacing" textLength="66" x="10" y="22.5332">Buildings</text></g><!--cluster ThermalZones--><g id="cluster_ThermalZones"><path d="M32.5,825 L132.5,825 A3.75,3.75 0 0 1 135,827.5 L142,848.6094 L861.5,848.6094 A2.5,2.5 0 0 1 864,851.1094 L864,1346.5 A2.5,2.5 0 0 1 861.5,1349 L32.5,1349 A2.5,2.5 0 0 1 30,1346.5 L30,827.5 A2.5,2.5 0 0 1 32.5,825 " fill="none" style="stroke:#000000;stroke-width:1.5;"/><line style="stroke:#000000;stroke-width:1.5;" x1="30" x2="142" y1="848.6094" y2="848.6094"/><text fill="#000000" font-family="Noto Sans JP" font-size="14" font-weight="bold" lengthAdjust="spacing" textLength="99" x="34" y="841.5332">ThermalZones</text></g><!--cluster Detailed--><g id="cluster_Detailed"><path d="M56.5,869 L115.5,869 A3.75,3.75 0 0 1 118,871.5 L125,892.6094 L837.5,892.6094 A2.5,2.5 0 0 1 840,895.1094 L840,1322.5 A2.5,2.5 0 0 1 837.5,1325 L56.5,1325 A2.5,2.5 0 0 1 54,1322.5 L54,871.5 A2.5,2.5 0 0 1 56.5,869 " fill="none" style="stroke:#000000;stroke-width:1.5;"/><line style="stroke:#000000;stroke-width:1.5;" x1="54" x2="125" y1="892.6094" y2="892.6094"/><text fill="#000000" font-family="Noto Sans JP" font-size="14" font-weight="bold" lengthAdjust="spacing" textLength="58" x="58" y="885.5332">Detailed</text></g><!--cluster BaseClasses--><g id="cluster_BaseClasses"><path d="M80.5,913 L171.5,913 A3.75,3.75 0 0 1 174,915.5 L181,936.6094 L813.5,936.6094 A2.5,2.5 0 0 1 816,939.1094 L816,1298.5 A2.5,2.5 0 0 1 813.5,1301 L80.5,1301 A2.5,2.5 0 0 1 78,1298.5 L78,915.5 A2.5,2.5 0 0 1 80.5,913 " fill="none" style="stroke:#000000;stroke-width:1.5;"/><line style="stroke:#000000;stroke-width:1.5;" x1="78" x2="181" y1="936.6094" y2="936.6094"/><text fill="#000000" font-family="Noto Sans JP" font-size="14" font-weight="bold" lengthAdjust="spacing" textLength="90" x="82" y="929.5332">BaseClasses</text></g><!--cluster HeatTransfer--><g id="cluster_HeatTransfer"><path d="M32.5,50 L124.5,50 A3.75,3.75 0 0 1 127,52.5 L134,73.6094 L865.5,73.6094 A2.5,2.5 0 0 1 868,76.1094 L868,798.5 A2.5,2.5 0 0 1 865.5,801 L32.5,801 A2.5,2.5 0 0 1 30,798.5 L30,52.5 A2.5,2.5 0 0 1 32.5,50 " fill="none" style="stroke:#000000;stroke-width:1.5;"/><line style="stroke:#000000;stroke-width:1.5;" x1="30" x2="134" y1="73.6094" y2="73.6094"/><text fill="#000000" font-family="Noto Sans JP" font-size="14" font-weight="bold" lengthAdjust="spacing" textLength="91" x="34" y="66.5332">HeatTransfer</text></g><!--cluster Types--><g id="cluster_Types"><path d="M686.5,208.5 L728.5,208.5 A3.75,3.75 0 0 1 731,211 L738,232.1094 L841.5,232.1094 A2.5,2.5 0 0 1 844,234.6094 L844,422 A2.5,2.5 0 0 1 841.5,424.5 L686.5,424.5 A2.5,2.5 0 0 1 684,422 L684,211 A2.5,2.5 0 0 1 686.5,208.5 " fill="none" style="stroke:#000000;stroke-width:1.5;"/><line style="stroke:#000000;stroke-width:1.5;" x1="684" x2="738" y1="232.1094" y2="232.1094"/><text fill="#000000" font-family="Noto Sans JP" font-size="14" font-weight="bold" lengthAdjust="spacing" textLength="41" x="688" y="225.0332">Types</text></g><!--cluster Data--><g id="cluster_Data"><path d="M56.5,94 L88.5,94 A3.75,3.75 0 0 1 91,96.5 L98,117.6094 L657.5,117.6094 A2.5,2.5 0 0 1 660,120.1094 L660,774.5 A2.5,2.5 0 0 1 657.5,777 L56.5,777 A2.5,2.5 0 0 1 54,774.5 L54,96.5 A2.5,2.5 0 0 1 56.5,94 " fill="none" style="stroke:#000000;stroke-width:1.5;"/><line style="stroke:#000000;stroke-width:1.5;" x1="54" x2="98" y1="117.6094" y2="117.6094"/><text fill="#000000" font-family="Noto Sans JP" font-size="14" font-weight="bold" lengthAdjust="spacing" textLength="31" x="58" y="110.5332">Data</text></g><!--cluster OpaqueConstructions--><g id="cluster_OpaqueConstructions"><path d="M110.5,519 L265.5,519 A3.75,3.75 0 0 1 268,521.5 L275,542.6094 L633.5,542.6094 A2.5,2.5 0 0 1 636,545.1094 L636,750.5 A2.5,2.5 0 0 1 633.5,753 L110.5,753 A2.5,2.5 0 0 1 108,750.5 L108,521.5 A2.5,2.5 0 0 1 110.5,519 " fill="none" style="stroke:#000000;stroke-width:1.5;"/><line style="stroke:#000000;stroke-width:1.5;" x1="108" x2="275" y1="542.6094" y2="542.6094"/><text fill="#000000" font-family="Noto Sans JP" font-size="14" font-weight="bold" lengthAdjust="spacing" textLength="154" x="112" y="535.5332">OpaqueConstructions</text></g><!--cluster BaseClasses--><g id="cluster_BaseClasses"><path d="M80.5,138 L171.5,138 A3.75,3.75 0 0 1 174,140.5 L181,161.6094 L633.5,161.6094 A2.5,2.5 0 0 1 636,164.1094 L636,492.5 A2.5,2.5 0 0 1 633.5,495 L80.5,495 A2.5,2.5 0 0 1 78,492.5 L78,140.5 A2.5,2.5 0 0 1 80.5,138 " fill="none" style="stroke:#000000;stroke-width:1.5;"/><line style="stroke:#000000;stroke-width:1.5;" x1="78" x2="181" y1="161.6094" y2="161.6094"/><text fill="#000000" font-family="Noto Sans JP" font-size="14" font-weight="bold" lengthAdjust="spacing" textLength="90" x="82" y="154.5332">BaseClasses</text></g><!--class ConstructionRecords--><g id="elem_ConstructionRecords"><rect codeLine="28" fill="#F1F1F1" height="181.9688" id="ConstructionRecords" rx="2.5" ry="2.5" style="stroke:#181818;stroke-width:0.5;" width="706" x="94" y="1103"/><text fill="#000000" font-family="Noto Sans JP" font-size="12" font-style="italic" lengthAdjust="spacing" textLength="49" x="422.5" y="1120.457">&#171;record&#187;</text><text fill="#000000" font-family="Noto Sans JP" font-size="14" lengthAdjust="spacing" textLength="133" x="380.5" y="1137.627">ConstructionRecords</text><line style="stroke:#181818;stroke-width:0.5;" x1="95" x2="799" y1="1145.7031" y2="1145.7031"/><ellipse cx="105" cy="1160.0078" fill="none" rx="3" ry="3" style="stroke:#038048;stroke-width:1.0;"/><text fill="#000000" font-family="Noto Sans JP" font-size="14" lengthAdjust="spacing" textLength="548" x="114" y="1164.2363">&#171;parameter&#187; datConExt[NConExt]: ParameterConstruction "&#31379;&#12398;&#12394;&#12356;&#22806;&#35013;&#12398;&#12497;&#12521;&#12513;&#12540;&#12479;"</text><ellipse cx="105" cy="1177.6172" fill="none" rx="3" ry="3" style="stroke:#038048;stroke-width:1.0;"/><text fill="#000000" font-family="Noto Sans JP" font-size="14" lengthAdjust="spacing" textLength="673" x="114" y="1181.8457">&#171;parameter&#187; datConExtWin[NConExtWin]: ParameterConstructionWithWindow "&#31379;&#12398;&#12354;&#12427;&#22806;&#35013;&#12398;&#12497;&#12521;&#12513;&#12540;&#12479;"</text><ellipse cx="105" cy="1195.2266" fill="none" rx="3" ry="3" style="stroke:#038048;stroke-width:1.0;"/><text fill="#000000" font-family="Noto Sans JP" font-size="14" lengthAdjust="spacing" textLength="582" x="114" y="1199.4551">&#171;parameter&#187; datConPar[NConPar]: ParameterConstruction "&#31354;&#38291;&#20869;&#12398;&#38291;&#20181;&#20999;&#12426;&#12398;&#12497;&#12521;&#12513;&#12540;&#12479;"</text><ellipse cx="105" cy="1212.8359" fill="none" rx="3" ry="3" style="stroke:#038048;stroke-width:1.0;"/><text fill="#000000" font-family="Noto Sans JP" font-size="14" lengthAdjust="spacing" textLength="616" x="114" y="1217.0645">&#171;parameter&#187; datConBou[NConBou]: ParameterConstruction "&#31354;&#38291;&#22806;&#12392;&#12398;&#22659;&#30028;&#27083;&#36896;&#20307;&#12398;&#12497;&#12521;&#12513;&#12540;&#12479;"</text><ellipse cx="105" cy="1230.4453" fill="none" rx="3" ry="3" style="stroke:#038048;stroke-width:1.0;"/><text fill="#000000" font-family="Noto Sans JP" font-size="14" lengthAdjust="spacing" textLength="680" x="114" y="1234.6738">&#171;parameter&#187; surBou[NSurBou]: OpaqueSurface "&#29105;&#20253;&#23566;&#12364;&#31354;&#38291;&#22806;&#12391;&#12514;&#12487;&#12523;&#21270;&#12373;&#12428;&#12383;&#19981;&#36879;&#26126;&#12394;&#38754;&#12398;&#12497;&#12521;&#12513;&#12540;&#12479;"</text><ellipse cx="105" cy="1248.0547" fill="none" rx="3" ry="3" style="stroke:#038048;stroke-width:1.0;"/><text fill="#000000" font-family="Noto Sans JP" font-size="14" lengthAdjust="spacing" textLength="429" x="114" y="1252.2832">&#171;parameter&#187; dummyCon: Brick120 "&#19978;&#26360;&#12365;&#12373;&#12428;&#12427;&#12398;&#12391;&#28961;&#35222;&#12375;&#12390;&#12424;&#12356;"</text><ellipse cx="105" cy="1265.6641" fill="none" rx="3" ry="3" style="stroke:#038048;stroke-width:1.0;"/><text fill="#000000" font-family="Noto Sans JP" font-size="14" lengthAdjust="spacing" textLength="474" x="114" y="1269.8926">&#171;parameter&#187; dummyGlaSys: SingleClear3 "&#19978;&#26360;&#12365;&#12373;&#12428;&#12427;&#12398;&#12391;&#28961;&#35222;&#12375;&#12390;&#12424;&#12356;"</text><line style="stroke:#181818;stroke-width:0.5;" x1="95" x2="799" y1="1276.9688" y2="1276.9688"/></g><!--class OpaqueSurface--><g id="elem_OpaqueSurface"><rect codeLine="88" fill="#F1F1F1" height="93.9219" id="OpaqueSurface" rx="2.5" ry="2.5" style="stroke:#181818;stroke-width:0.5;" width="663" x="104.5" y="949"/><text fill="#000000" font-family="Noto Sans JP" font-size="12" font-style="italic" lengthAdjust="spacing" textLength="49" x="411.5" y="966.457">&#171;record&#187;</text><text fill="#000000" font-family="Noto Sans JP" font-size="14" lengthAdjust="spacing" textLength="100" x="386" y="983.627">OpaqueSurface</text><line style="stroke:#181818;stroke-width:0.5;" x1="105.5" x2="766.5" y1="991.7031" y2="991.7031"/><ellipse cx="115.5" cy="1006.0078" fill="none" rx="3" ry="3" style="stroke:#038048;stroke-width:1.0;"/><text fill="#000000" font-family="Noto Sans JP" font-size="14" lengthAdjust="spacing" textLength="411" x="124.5" y="1010.2363">&#171;parameter&#187; name: String name "&#38754;&#12398;&#21517;&#21069;&#65288;MixedAir&#12391;&#12399;&#20219;&#24847;&#65289;"</text><ellipse cx="115.5" cy="1023.6172" fill="none" rx="3" ry="3" style="stroke:#038048;stroke-width:1.0;"/><text fill="#000000" font-family="Noto Sans JP" font-size="14" lengthAdjust="spacing" textLength="637" x="124.5" y="1027.8457">&#171;parameter&#187; boundaryCondition: CFDBoundaryConditions "&#19981;&#20351;&#29992;&#65288;CFD&#12514;&#12487;&#12523;&#12398;&#26178;&#12395;&#20351;&#29992;&#12373;&#12428;&#12427;&#65289;"</text><line style="stroke:#181818;stroke-width:0.5;" x1="105.5" x2="766.5" y1="1034.9219" y2="1034.9219"/></g><!--class SurfaceRoughness--><g id="elem_SurfaceRoughness"><rect codeLine="106" fill="#F1F1F1" height="164.3594" id="SurfaceRoughness" rx="2.5" ry="2.5" style="stroke:#181818;stroke-width:0.5;" width="127" x="700.5" y="244.5"/><text fill="#000000" font-family="Noto Sans JP" font-size="12" font-style="italic" lengthAdjust="spacing" textLength="37" x="745.5" y="261.957">&#171;type&#187;</text><text fill="#000000" font-family="Noto Sans JP" font-size="14" lengthAdjust="spacing" textLength="121" x="703.5" y="279.127">SurfaceRoughness</text><line style="stroke:#181818;stroke-width:0.5;" x1="701.5" x2="826.5" y1="287.2031" y2="287.2031"/><text fill="#000000" font-family="Noto Sans JP" font-size="14" lengthAdjust="spacing" textLength="71" x="706.5" y="305.7363">VeryRough</text><text fill="#000000" font-family="Noto Sans JP" font-size="14" lengthAdjust="spacing" textLength="42" x="706.5" y="323.3457">Rough</text><text fill="#000000" font-family="Noto Sans JP" font-size="14" lengthAdjust="spacing" textLength="49" x="706.5" y="340.9551">Medium</text><text fill="#000000" font-family="Noto Sans JP" font-size="14" lengthAdjust="spacing" textLength="97" x="706.5" y="358.5645">MediumSmooth</text><text fill="#000000" font-family="Noto Sans JP" font-size="14" lengthAdjust="spacing" textLength="48" x="706.5" y="376.1738">Smooth</text><text fill="#000000" font-family="Noto Sans JP" font-size="14" lengthAdjust="spacing" textLength="77" x="706.5" y="393.7832">VerySmooth</text><line style="stroke:#181818;stroke-width:0.5;" x1="701.5" x2="826.5" y1="400.8594" y2="400.8594"/></g><!--class OpaqueConstructionsGeneric--><g id="elem_OpaqueConstructionsGeneric"><rect codeLine="119" fill="#F1F1F1" height="181.9688" id="OpaqueConstructionsGeneric" rx="2.5" ry="2.5" style="stroke:#181818;stroke-width:0.5;" width="495" x="124.5" y="555"/><text fill="#000000" font-family="Noto Sans JP" font-size="12" font-style="italic" lengthAdjust="spacing" textLength="49" x="347.5" y="572.457">&#171;record&#187;</text><text fill="#000000" font-family="Noto Sans JP" font-size="14" lengthAdjust="spacing" textLength="50" x="347" y="589.627">Generic</text><line style="stroke:#181818;stroke-width:0.5;" x1="125.5" x2="618.5" y1="597.7031" y2="597.7031"/><ellipse cx="135.5" cy="612.0078" fill="none" rx="3" ry="3" style="stroke:#038048;stroke-width:1.0;"/><text fill="#000000" font-family="Noto Sans JP" font-size="14" lengthAdjust="spacing" textLength="224" x="144.5" y="616.2363">&#171;parameter&#187; nLay: Integer "&#23652;&#12398;&#25968;"</text><ellipse cx="135.5" cy="629.6172" fill="none" rx="3" ry="3" style="stroke:#038048;stroke-width:1.0;"/><text fill="#000000" font-family="Noto Sans JP" font-size="14" lengthAdjust="spacing" textLength="469" x="144.5" y="633.8457">&#171;parameter&#187; material[nLay]: Material: &#23652;&#12372;&#12392;&#12398;&#26448;&#26009;&#23646;&#24615;&#65288;&#22806;&#12363;&#12425;&#20869;&#12398;&#38918;&#65289;"</text><ellipse cx="135.5" cy="647.2266" fill="none" rx="3" ry="3" style="stroke:#038048;stroke-width:1.0;"/><text fill="#000000" font-family="Noto Sans JP" font-size="14" lengthAdjust="spacing" textLength="360" x="144.5" y="651.4551">&#171;parameter&#187; absIR_a: Emissivity "&#22806;&#35013;&#38754;&#12398;&#36196;&#22806;&#32218;&#21560;&#21454;&#29575;"</text><ellipse cx="135.5" cy="664.8359" fill="none" rx="3" ry="3" style="stroke:#038048;stroke-width:1.0;"/><text fill="#000000" font-family="Noto Sans JP" font-size="14" lengthAdjust="spacing" textLength="360" x="144.5" y="669.0645">&#171;parameter&#187; absIR_b: Emissivity "&#37096;&#23627;&#38754;&#12398;&#36196;&#22806;&#32218;&#21560;&#21454;&#29575;"</text><ellipse cx="135.5" cy="682.4453" fill="none" rx="3" ry="3" style="stroke:#038048;stroke-width:1.0;"/><text fill="#000000" font-family="Noto Sans JP" font-size="14" lengthAdjust="spacing" textLength="353" x="144.5" y="686.6738">&#171;parameter&#187; absSol_a: Emissivity "&#22806;&#35013;&#38754;&#12398;&#26085;&#23556;&#21560;&#21454;&#29575;"</text><ellipse cx="135.5" cy="700.0547" fill="none" rx="3" ry="3" style="stroke:#038048;stroke-width:1.0;"/><text fill="#000000" font-family="Noto Sans JP" font-size="14" lengthAdjust="spacing" textLength="353" x="144.5" y="704.2832">&#171;parameter&#187; absSol_b: Emissivity "&#37096;&#23627;&#38754;&#12398;&#26085;&#23556;&#21560;&#21454;&#29575;"</text><ellipse cx="135.5" cy="717.6641" fill="none" rx="3" ry="3" style="stroke:#038048;stroke-width:1.0;"/><text fill="#000000" font-family="Noto Sans JP" font-size="14" lengthAdjust="spacing" textLength="409" x="144.5" y="721.8926">&#171;parameter&#187; roughness_a: SurfaceRoughness "&#22806;&#35013;&#34920;&#38754;&#12398;&#31895;&#12373;"</text><line style="stroke:#181818;stroke-width:0.5;" x1="125.5" x2="618.5" y1="728.9688" y2="728.9688"/></g><!--class Material--><g id="elem_Material"><rect codeLine="184" fill="#F1F1F1" height="305.2344" id="Material" rx="2.5" ry="2.5" style="stroke:#181818;stroke-width:0.5;" width="525" x="94.5" y="174"/><text fill="#000000" font-family="Noto Sans JP" font-size="12" font-style="italic" lengthAdjust="spacing" textLength="49" x="332.5" y="191.457">&#171;record&#187;</text><text fill="#000000" font-family="Noto Sans JP" font-size="14" lengthAdjust="spacing" textLength="50" x="332" y="208.627">Material</text><line style="stroke:#181818;stroke-width:0.5;" x1="95.5" x2="618.5" y1="216.7031" y2="216.7031"/><ellipse cx="105.5" cy="231.0078" fill="none" rx="3" ry="3" style="stroke:#038048;stroke-width:1.0;"/><text fill="#000000" font-family="Noto Sans JP" font-size="14" lengthAdjust="spacing" textLength="185" x="114.5" y="235.2363">&#171;parameter&#187; x: Length "&#21402;&#12415;"</text><ellipse cx="105.5" cy="248.6172" fill="none" rx="3" ry="3" style="stroke:#038048;stroke-width:1.0;"/><text fill="#000000" font-family="Noto Sans JP" font-size="14" lengthAdjust="spacing" textLength="299" x="114.5" y="252.8457">&#171;parameter&#187; k: ThermalConductivity "&#29105;&#20253;&#23566;&#29575;"</text><ellipse cx="105.5" cy="266.2266" fill="none" rx="3" ry="3" style="stroke:#038048;stroke-width:1.0;"/><text fill="#000000" font-family="Noto Sans JP" font-size="14" lengthAdjust="spacing" textLength="275" x="114.5" y="270.4551">&#171;parameter&#187; c: SpecificHeatCapacity "&#27604;&#29105;"</text><ellipse cx="105.5" cy="283.8359" fill="none" rx="3" ry="3" style="stroke:#038048;stroke-width:1.0;"/><text fill="#000000" font-family="Noto Sans JP" font-size="14" lengthAdjust="spacing" textLength="190" x="114.5" y="288.0645">&#171;parameter&#187; d: Density "&#23494;&#24230;"</text><ellipse cx="105.5" cy="301.4453" fill="none" rx="3" ry="3" style="stroke:#038048;stroke-width:1.0;"/><text fill="#000000" font-family="Noto Sans JP" font-size="14" lengthAdjust="spacing" textLength="320" x="114.5" y="305.6738">&#171;parameter&#187; R: m2.K/W "&#21336;&#20301;&#38754;&#31309;&#24403;&#12383;&#12426;&#12398;&#29105;&#25269;&#25239;"</text><ellipse cx="105.5" cy="319.0547" fill="none" rx="3" ry="3" style="stroke:#038048;stroke-width:1.0;"/><text fill="#000000" font-family="Noto Sans JP" font-size="14" lengthAdjust="spacing" textLength="499" x="114.5" y="323.2832">&#171;parameter&#187; nStaRef: Integer "&#21442;&#29031;&#26448;&#26009;&#65288;0.2m&#12467;&#12531;&#12463;&#12522;&#12540;&#12488;&#65289;&#12398;&#29366;&#24907;&#22793;&#25968;&#12398;&#25968;"</text><ellipse cx="105.5" cy="336.6641" fill="none" rx="3" ry="3" style="stroke:#038048;stroke-width:1.0;"/><text fill="#000000" font-family="Noto Sans JP" font-size="14" lengthAdjust="spacing" textLength="264" x="114.5" y="340.8926">&#171;parameter&#187; nSta: Integer "&#29366;&#24907;&#22793;&#25968;&#12398;&#25968;"</text><ellipse cx="105.5" cy="354.2734" fill="none" rx="3" ry="3" style="stroke:#038048;stroke-width:1.0;"/><text fill="#000000" font-family="Noto Sans JP" font-size="14" lengthAdjust="spacing" textLength="346" x="114.5" y="358.502">&#171;parameter&#187; steadyState: Boolean "&#23450;&#24120;&#35336;&#31639;&#12363;&#12393;&#12358;&#12363;"</text><ellipse cx="105.5" cy="371.8828" fill="none" rx="3" ry="3" style="stroke:#038048;stroke-width:1.0;"/><text fill="#000000" font-family="Noto Sans JP" font-size="14" lengthAdjust="spacing" textLength="477" x="114.5" y="376.1113">&#171;parameter&#187; piRef: Real "&#21442;&#29031;&#26448;&#26009;&#12398;x/sqrt&#65288;&#945;&#65289;&#65309;&#28201;&#24230;&#22793;&#21270;&#12398;&#31354;&#38291;&#20253;&#25773;&#36895;&#24230;"</text><ellipse cx="105.5" cy="389.4922" fill="none" rx="3" ry="3" style="stroke:#038048;stroke-width:1.0;"/><text fill="#000000" font-family="Noto Sans JP" font-size="14" lengthAdjust="spacing" textLength="408" x="114.5" y="393.7207">&#171;parameter&#187; piMat: Real "x/sqrt&#65288;&#945;&#65289;&#65309;&#28201;&#24230;&#22793;&#21270;&#12398;&#31354;&#38291;&#20253;&#25773;&#36895;&#24230;"</text><ellipse cx="105.5" cy="407.1016" fill="none" rx="3" ry="3" style="stroke:#038048;stroke-width:1.0;"/><text fill="#000000" font-family="Noto Sans JP" font-size="14" lengthAdjust="spacing" textLength="278" x="114.5" y="411.3301">&#171;parameter&#187; nStaReal: Real "&#29366;&#24907;&#22793;&#25968;&#23455;&#25968;"</text><ellipse cx="105.5" cy="424.7109" fill="none" rx="3" ry="3" style="stroke:#038048;stroke-width:1.0;"/><text fill="#000000" font-family="Noto Sans JP" font-size="14" lengthAdjust="spacing" textLength="430" x="114.5" y="428.9395">&#171;parameter&#187; TSol: Temperature "PCM&#12395;&#12398;&#12415;&#20351;&#29992;&#12373;&#12428;&#12427;&#22266;&#30456;&#32218;&#28201;&#24230;"</text><ellipse cx="105.5" cy="442.3203" fill="none" rx="3" ry="3" style="stroke:#038048;stroke-width:1.0;"/><text fill="#000000" font-family="Noto Sans JP" font-size="14" lengthAdjust="spacing" textLength="429" x="114.5" y="446.5488">&#171;parameter&#187; TLiq: Temperature "PCM&#12395;&#12398;&#12415;&#20351;&#29992;&#12373;&#12428;&#12427;&#28082;&#30456;&#32218;&#28201;&#24230;"</text><ellipse cx="105.5" cy="459.9297" fill="none" rx="3" ry="3" style="stroke:#038048;stroke-width:1.0;"/><text fill="#000000" font-family="Noto Sans JP" font-size="14" lengthAdjust="spacing" textLength="351" x="114.5" y="464.1582">&#171;parameter&#187; LHea: SpecificInternalEnergy "&#30456;&#22793;&#21270;&#28508;&#29105;"</text><line style="stroke:#181818;stroke-width:0.5;" x1="95.5" x2="618.5" y1="471.2344" y2="471.2344"/></g><!--link OpaqueSurface to ConstructionRecords--><g id="link_OpaqueSurface_ConstructionRecords"><path codeLine="209" d="M438.61,1043.45 C439.6,1061.22 440.1072,1070.1789 441.2572,1090.6589 " fill="none" id="OpaqueSurface-to-ConstructionRecords" style="stroke:#181818;stroke-width:1.0;"/><polygon fill="#181818" points="441.93,1102.64,445.5873,1096.4252,441.2572,1090.6589,437.5999,1096.8737,441.93,1102.64" style="stroke:#181818;stroke-width:1.0;"/><text fill="#000000" font-family="Noto Sans JP" font-size="13" lengthAdjust="spacing" textLength="101" x="336.5018" y="1092.2326">surBou[NSurBou]</text></g><!--reverse link OpaqueConstructionsGeneric to OpaqueSurface--><g id="link_OpaqueConstructionsGeneric_OpaqueSurface"><path codeLine="212" d="M391.8178,754.7727 C404.3078,822.6427 417.65,895.21 427.54,948.99 " fill="none" id="OpaqueConstructionsGeneric-backto-OpaqueSurface" style="stroke:#181818;stroke-width:1.0;"/><polygon fill="none" points="388.56,737.07,385.9169,755.8587,397.7187,753.6868,388.56,737.07" style="stroke:#181818;stroke-width:1.0;"/></g><!--link Material to OpaqueConstructionsGeneric--><g id="link_Material_OpaqueConstructionsGeneric"><path codeLine="216" d="M364.17,479.28 C365.39,505.1 366.0507,519.1935 367.1707,542.7735 " fill="none" id="Material-to-OpaqueConstructionsGeneric" style="stroke:#181818;stroke-width:1.0;"/><polygon fill="#181818" points="367.74,554.76,371.4508,548.577,367.1707,542.7735,363.4598,548.9565,367.74,554.76" style="stroke:#181818;stroke-width:1.0;"/><text fill="#000000" font-family="Noto Sans JP" font-size="13" lengthAdjust="spacing" textLength="82" x="281.9919" y="544.0527">material[nLay]</text></g><!--link SurfaceRoughness to OpaqueConstructionsGeneric--><g id="link_SurfaceRoughness_OpaqueConstructionsGeneric"><path codeLine="217" d="M715.9,408.81 C694.28,440.82 666.7,476.23 636,503 C614.33,521.9 599.921,532.9464 574.651,548.5464 " fill="none" id="SurfaceRoughness-to-OpaqueConstructionsGeneric" style="stroke:#181818;stroke-width:1.0;"/><polygon fill="#181818" points="564.44,554.85,571.6467,555.1019,574.651,548.5464,567.4443,548.2945,564.44,554.85" style="stroke:#181818;stroke-width:1.0;"/><text fill="#000000" font-family="Noto Sans JP" font-size="13" lengthAdjust="spacing" textLength="74" x="503.3124" y="544.1501">roughness_a</text></g><!--SRC=[nLjzKnFN6l-VJt5c_s6cLoDYUwkPnXbVwhsseWxOEdCTXpaa1xBZPfVkRbJApGn95154R2luGYcMSaNX5a5jGONs6zmliMn2_l8htEUSivjiajtDReBtPfXatyxlUSvpdlUp9CK4GN5HZKkaJRiYoeDOnIaqt8RWao3zE2tffnHPFujJ10bd5Lr1FLZMq1VdXRPCMziWZb_10mGTJujIGfG7D3xGldmXITGKblwXo4IBd2Gw5YMIu8_GJtlbmQ51eZblqCy92MiQEd7gv74bBIUmEdH2aHEYBYf0_xFFa0vZqD6Zg7POnd6USQ5r76k4GHCDkPCyTvMeIImFK2egYIjgmeqE_Vo5Fi94HdIYqgUkdOcYCqGUq9D8A2x_O6HNp1T_6Da7HlQfkV7KpBusigj6Rjd8RndvU-nxoiY_Cd9hvfkRGZ0AtTuKfbxj1OK46QoGC7_96ja98tSRO0iRwqPsEXZ801wiuNDrPtEykFAYZBQxCLUQNN13Q-Tu_QACfMhK9BvAxEM9ekEA8X4i-oX0PL5xGD5FYLnrmYvgqcycS5oOUMFU-mwkbrOU1XRGXvBoNeZO5bOG4LUE_IsCVkBSfC62TJKTfwRSpPQYPbLgHdd83-i0zFbr_T9P_divYixR3pX9s88niij6zeQvEBFxoqrwcl_Eo3ytyZzJ6ydzAOGXUL6KRQfmw4NuegWduNP2kLPX8MVa9bfd0SWn-l3hC-ldRqipFvYZb18SxBoRDiTk6RdnLWY3AsQ4uRSXuSKP8_iCY9aB-UBqdSBIH6daoSxs3ysHrz8gezt3Ve7skK7yJPh0QJ-EGsWgZgxlRCsPQtUDx1q7_IKZls3aRndv5VCEd4uRkJj6TdvdSx8qCbLu20ylb-OMcXH8EfMY8GbiH1NZLmvsTY21-eBPJICxQP7AJR15NohU-7dtwGntqaPk3DGmC8M_IRXd20on1yAh16P5i7geUK8GivsdxNQGTQpVsNIgZwYUVhBY1EePbhb9HD5fMIS3SCtTyWhJQq8OFB2X2gI7AON21BrrykXj9w5GGI_hKRsD83WsrtadTclAxa7PEoHOhcuu9SgnWvbO2byVFhZFNfrCcR5cC65jtM7XHWl8iC8ki72r1KnO0nTCkDei9b_NMan-jKbC6hov_53CbYGwYZhg0tauD5YD2Y0zQHKJbi82f4Ujee70B3Hwr18Q5pz5iuvyq38rvxeoG7IeULpo5zlJkeTC7r_hvncEHT4nbM0abFtAxi_Fk8t3T_7vfE02bGd7coE9-L1SljyQ0v_-Vcl2wQhA3x_VkYq4ffLaiQ8w8QvDoXjXN7F1gAgTWghJCGP4vnv-AAGtlaFhsUu_fSAGRW9GTYMmCSK5RDU8Zo1Ymgt2Jq_AigTpk_tIl3SMN3xALHAjrCZbSFoIHXoQUAoQsml5yT-30sfY0egDuMIiOn-jYkWFr3MnZaoqKhNPwv1zpJN7lFNMoFvYRlt60xK_IHyvWz1YL78VjR9OaAF5w7Yqdm66NBW1AyC3b6yXoODZdQIqoD-8J22nj6TUcBjNc7bahlzK65aAFqzdtNnEzIxll7rRxNdSTXcwYANGNiqpru53M7LT5QbgMKjzRzAyJPr4btYT98w9AirqiYzsthqht9YgymvUo18UWgpMhXkSV3f4xUg0V8NlHKuN9L03ch8ZmSXd8ISpycCm1rReBqDrVgJ3VFiqCFUW6HMut8AHspJoFncvDxjBtpj1MHVY1itzuJitKPYX3u2u2kjWBN_05G-2teeZQhtzagAeCPWGXCBEoASV7pvyv63d9mZB2JfBz1aw5FdaqCUTXmz_-abpOHTen8aemP9RLFPtH0uTwVphaICE8lObFn8khaKdE37KesETd9P5gghbyH2FDf_36b0D6vih_3XlZYmQkUztDc7nnsXfyUGrk4LGj5DOqaYmPRhGYtir7MmYYYwGr21HiPvMcGRCiKxSs36wMeipxxVcOINAb3aZLHg-0elOHH9YEbNp5BkrxBsKRapr-JDrd38rUlD_ofH6b-IORjNllTYnB8mF-jSKKb_pI7srVUQeH_UP-ecTxJ-Bzv-1UE2HSjr5NSMZ74Y3toqNvovYgVQdLkEvggVH8Drgu3nbrh5lneF-NuHJqwMeFhAw5dP_yUy4wnTKB6lzLQbsrMP2NRpX4gOrbIegD4vT9UKeLR-LK56JKrHaI31dtvghZztqgCgck3di_35d_lfGQ111EKTGJtr0ZcZc3bgmyAmqCc_atmLdpsgQSrNiLj83IPbecZThzFCrKOVOetLttAzoL-9nkIUbA7hz68_BbBJBhLf5Sgh9IQpZcadOjrno19-Ihjp-gpPOxphBJZSmMBnztC3O-K31UbfWG-kPT0LpGVDm7sVmaAF9PAulklMAlCUdCDLaB5sYG9UZgCiwZo86TPytmfof50-6VBV2whyz6NNrHtO2KPizi7Ad6-Q8K1hYUqn8TKQ-F71HW0L7AAQbK-oMpHcwX4Hq6KMwKR-YmY5ax0UZb5lsE0fCrPQH38a5O3A4ouYH8ZYUHAoZmp5ZQBYMEXjLmq061HGoxjDETzDm-NbAr3JnggWFmLAnBYZtzRk_BS9fSUEnUM_JdBfRl7jB20NTLmrToZyproVs0Bf7aVpOBZpubxbserbW7wQR15PjbqUPhdE35klbFaRnvGFN5aEcpVkiiYDTNVWDk-REzYQcOnF0pzsqUtcDQbe1l8_llYXKbNRywadY177aNb2rWf3OTlIAkRrkPEzO7NkMLbzGquGbZRGb8OGYQ8TmDuAZD_UOu02LuANePLQTqmtDIgteT6f6xjzq-oZt9hntyz_TjMZZ09JN7a2j2hVsYhZ6vSl4x2I-lHuSuolM3JcXaFv-CIuIMJ_NNvMy2RmLzHMKNi51cPzYm4wRB_Ur6dcfzeRkn1lRrva4sLotjPLrcgba8K3KAJM2s51dMgWbMf0cwAeYIRXF8hoR6qDTIe98OXn7850d8zRJNqCEggXQ1Cj3r6HuK8ClJVpMFc4sGOCPc0IDPpfEWz3s8IlY7OK35jteRHRWQiVkuqzcNA9kkwkZz76Sr2Q70xi- -dIBFk-wuwMDku-Dx9_1jUjAr7uZYfPBD6UprClUpWkbgrpip3ymUsBwgiWEOmFpOlfQ6fagPSE1gqc51Mm6tqtw9LwQL87pw8Uvfs6Tfqauvoq4or2c9k6x6S9zZGdtyQx5NX46SPxkzX5bsT4wNKmJadLDuFn4sQ8_gq_f_CGNZ5XW-yIQIoNkPPvuJusJhbVk3IzYmXegxjrRK-thlOA6UNroyS1mAl9bPqR8s7irpfgSff9DKS2zgNGKdHoISKgCVorgSKNZAVR4TF7bGy0FmsmgRJ5xDg81kr1HURFR107S6uUqOf34HJ0kcWwSmA0mZDt2Y_im_p2ynYrMlpWmV6N0Lx1XiRkwe8HL9AnsWQfAj5swOEHNTbyjbsvDWUqKDZPeUpZ_hlZwVl7b14-_GYLOvpkYwBmAvGJh79chZmjFjimVbypnsLPiZkThGOsEFzsYrV58H7sQNo0gFLgpVTmgTJ87mFlKkEqctAb5koy8RUhoocwyTT9sZFICKy4ctKAGR4pPRyfD47RlFZXdzY42bdC2BUApAE-hgPwpQKuv-MmQPnLXYFcxWiPluLRUnBLRT4rs31lamdkP2NjZXGecFYzRGlWaiXKrNupMHJJlaP0ryguZ39nykBCzoT-iCEdEyJn_FG7uA8p_LXX_41IJzWZ1jftjsAbSyUOIxo-0KNT4EbD6xXLxi_-5aUUl-uznyowE_rwuEM4ktYvChuLhuLAoplSCcmPoxBiwMZGGuypDpTrdOyNL1xGraNrkP4VX82ZgeCXamiExKo30tFK3sZUg3fBvppf8uVtM70__m3nx6NALloS9sbNu_jVIo7o8zHqKmKnigX-E35zosYwttk5n2DzSdGyX_0iG76hsUi-Vw6BThrKmqfhjDtFsRN5s4tmEdqbW8cV4Ru8JAVp-iXaYPy2YA-RDcYGobZw7R6M0UelPJIxtmlQFdfPE-oDnkac2mT_QcWY63XntARAYAxB8t4KCzTDzVXGSP3097ZPEtwWXtgCpZNOsuO7sM2pc-ayHSBsjUazuVqAv9k__20arxyCBRkCjv6g42gRxrj4_zpCQrQFQsZqsUylyr6qF2zK0Z1LlkfIhSZ0gWrRlA0dUmzlgElHb34SZtmy0Fly5]--></g></svg>